<?xml version="1.0" encoding="UTF-8"?>
<svg xmlns="http://www.w3.org/2000/svg" version="1.1" viewBox="0 0 86 45">
  <defs>
    <style>
      .cls-1 {
        fill: #ffce7b;
      }

      .cls-2 {
        fill: #c7eafb;
      }

      .cls-3 {
        fill: #c6de89;
      }

      .cls-4 {
        fill: #8dc63f;
      }

      .cls-5 {
        fill: #00aeef;
      }

      .cls-6 {
        fill: #fff;
      }

      .cls-7 {
        fill: #f99d1c;
      }

      .cls-8 {
        fill: #d3b6d7;
      }

      .cls-9 {
        fill: #aa55a1;
      }
    </style>
  </defs>
  <!-- Generator: Adobe Illustrator 28.7.9, SVG Export Plug-In . SVG Version: 1.2.0 Build 218)  -->
  <g>
    <g id="Layer_1">
      <g>
        <path class="cls-7" d="M.6,22.5c.9-5.2,3.8-9.8,7.9-12.9,3.1-4,7.7-6.9,12.9-7.9-1.2-.2-2.5-.3-3.8-.3-4.9,0-9.4,1.7-12.9,4.4C1.9,9.4.2,13.8.2,18.7s.1,2.5.3,3.8"/>
        <path class="cls-9" d="M21.4,1.7c5.2.9,9.8,3.8,12.9,7.9,4,3.1,6.9,7.7,7.9,12.9.2-1.2.3-2.5.3-3.8,0-4.9-1.7-9.4-4.4-12.9-3.6-2.8-8.1-4.4-12.9-4.4s-2.5.1-3.8.3"/>
        <path class="cls-1" d="M8.4,9.6c3.6-2.8,8.1-4.4,12.9-4.4s9.4,1.7,12.9,4.4c-3.1-4-7.7-6.9-12.9-7.9-5.2.9-9.8,3.8-12.9,7.9"/>
        <path class="cls-5" d="M21.4,43.3c-5.2-.9-9.8-3.8-12.9-7.9-4-3.1-6.9-7.7-7.9-12.9-.2,1.2-.3,2.5-.3,3.8,0,4.9,1.7,9.4,4.4,12.9,3.6,2.8,8.1,4.4,12.9,4.4s2.5-.1,3.8-.3"/>
        <path class="cls-2" d="M8.4,9.6c-4,3.1-6.9,7.7-7.9,12.9.9,5.2,3.8,9.8,7.9,12.9-2.8-3.6-4.4-8.1-4.4-12.9s1.7-9.4,4.4-12.9"/>
        <path class="cls-4" d="M42.1,22.5c-.9,5.2-3.8,9.8-7.9,12.9-3.1,4-7.7,6.9-12.9,7.9,1.2.2,2.5.3,3.8.3,4.9,0,9.4-1.7,12.9-4.4,2.8-3.6,4.4-8.1,4.4-12.9s-.1-2.5-.3-3.8"/>
        <path class="cls-3" d="M8.4,35.4c3.1,4,7.7,6.9,12.9,7.9,5.2-.9,9.8-3.8,12.9-7.9-3.6,2.8-8.1,4.4-12.9,4.4s-9.4-1.7-12.9-4.4"/>
        <path class="cls-8" d="M34.3,35.4c4-3.1,6.9-7.7,7.9-12.9-.9-5.2-3.8-9.8-7.9-12.9,2.8,3.6,4.4,8.1,4.4,12.9s-1.7,9.4-4.4,12.9"/>
        <path class="cls-6" d="M8.4,9.6c-2.8,3.6-4.4,8.1-4.4,12.9s1.7,9.4,4.4,12.9c3.6,2.8,8.1,4.4,12.9,4.4s9.4-1.7,12.9-4.4c2.8-3.6,4.4-8.1,4.4-12.9s-1.7-9.4-4.4-12.9c-3.6-2.8-8.1-4.4-12.9-4.4s-9.4,1.7-12.9,4.4"/>
        <path class="cls-9" d="M23,15.5h2.2c.5,0,.6.2.7.7v.7c.8-.6,2.3-1.6,4.6-1.6s4.1,1.6,4.1,3.8v9.8c0,.5-.2.7-.7.7h-2.3c-.5,0-.7-.2-.7-.7v-8.8c0-1-.3-1.5-1.5-1.5s-2.7.8-3.3,1.3v9c0,.5-.2.7-.6.7h-2.3c-.5,0-.7-.2-.7-.7v-12.6c0-.5.2-.7.7-.7M19.7,19.4v3.3c0,.5-.2.6-.6.6h-7.2v2.1c0,1,.5,1.5,2.2,1.5s2.2-.6,2.2-1.5h0c0-.6.2-.8.7-.8h2c.5,0,.7.2.7.7v.3c0,2.5-1.5,4.2-5.6,4.2s-5.8-1.6-5.8-4.2v-6.2c0-2.5,1.7-4.1,5.8-4.1s5.6,1.6,5.6,4.1M11.9,19.6v1.2h4.4v-1.2c0-1-.6-1.6-2.2-1.6s-2.2.6-2.2,1.6"/>
        <g>
          <path class="cls-9" d="M47.5,16.2c.4,0,.5.2.5.5v.8c.8-.6,2.1-1.5,4.2-1.5s3.6,1.4,3.6,3.4v6.1c0,2.1-1.1,3.4-3.6,3.4s-3.4-.9-4.1-1.4v5.9c0,.3-.1.5-.5.5h-1.5c-.4,0-.5-.2-.5-.5v-16.7c0-.4.1-.5.5-.5h1.3ZM53.3,19.9c0-.9-.4-1.6-1.9-1.6s-2.9.9-3.4,1.3v6c.6.4,1.8,1.3,3.4,1.3s1.9-.8,1.9-1.6v-5.3Z"/>
          <path class="cls-9" d="M57.4,19.4c0-2,1.3-3.4,4.8-3.4s4.8,1.4,4.8,3.4v8.8c0,.4-.1.5-.5.5h-1.3c-.4,0-.5-.2-.5-.5v-.7c-.8.6-2.1,1.4-4,1.4s-3.6-1.4-3.6-3.1v-1.2c0-1.6,1.2-3.1,3.5-3.1h4v-1.9c0-1-.5-1.7-2.4-1.7s-2.5.6-2.5,1.6v.2c0,.4-.1.5-.5.5h-1.3c-.3,0-.5-.2-.5-.5v-.4ZM64.6,25.7v-2.2h-3.5c-1.3,0-1.7.6-1.7,1.5v.5c0,1,.6,1.4,1.8,1.4s2.7-.8,3.3-1.3"/>
          <path class="cls-9" d="M75.7,16.5v1.2c0,.4-.2.5-.5.5-1.9.1-3.3,1.1-3.9,1.6v8.4c0,.4-.1.5-.5.5h-1.5c-.4,0-.5-.2-.5-.5v-11.5c0-.3.1-.5.5-.5h1.3c.4,0,.5.2.5.5v1.1c.8-.7,2.2-1.8,4-1.8s.5.2.5.5"/>
          <path class="cls-9" d="M76.2,19.4c0-2,1.3-3.4,4.8-3.4s4.8,1.4,4.8,3.4v8.8c0,.4-.1.5-.5.5h-1.3c-.4,0-.5-.2-.5-.5v-.7c-.8.6-2.1,1.4-4,1.4s-3.6-1.4-3.6-3.1v-1.2c0-1.6,1.2-3.1,3.5-3.1h4v-1.9c0-1-.5-1.7-2.4-1.7s-2.5.6-2.5,1.6v.2c0,.4-.1.5-.5.5h-1.3c-.3,0-.5-.2-.5-.5v-.4ZM83.4,25.7v-2.2h-3.5c-1.3,0-1.7.6-1.7,1.5v.5c0,1,.6,1.4,1.8,1.4s2.7-.8,3.3-1.3"/>
        </g>
      </g>
    </g>
  </g>
</svg>